<svg width="164" height="161" viewBox="0 0 164 161" fill="none" xmlns="http://www.w3.org/2000/svg">
<path d="M59.2798 104.811C56.5517 77.5121 76.4704 53.1706 103.769 50.4424C131.068 47.7141 155.41 67.6321 158.139 94.9309C160.867 122.23 140.948 146.572 113.649 149.3C86.3502 152.029 62.0081 132.11 59.2798 104.811Z" stroke="white" stroke-opacity="0.2" stroke-width="2"/>
<path d="M41.5317 90.2885C38.8037 62.9896 58.7224 38.6482 86.0214 35.9199C113.32 33.1917 137.662 53.1097 140.391 80.4085C143.119 107.707 123.2 132.05 95.9013 134.778C68.6022 137.506 44.26 117.587 41.5317 90.2885Z" stroke="white" stroke-opacity="0.2" stroke-width="2"/>
<path d="M23.7848 75.765C21.0567 48.4662 40.9754 24.1247 68.2744 21.3965C95.5734 18.6683 119.915 38.5862 122.644 65.885C125.372 93.184 105.453 117.526 78.1543 120.255C50.8552 122.983 26.5131 103.064 23.7848 75.765Z" stroke="white" stroke-opacity="0.2" stroke-width="2"/>
<path d="M6.03446 61.2406C3.30639 33.9418 23.2251 9.60032 50.5241 6.87205C77.8231 4.14384 102.165 24.0618 104.894 51.3606C107.622 78.6596 87.7031 103.002 60.404 105.73C33.1049 108.458 8.76272 88.5396 6.03446 61.2406Z" stroke="white" stroke-opacity="0.2" stroke-width="2"/>
</svg>
