<svg width="32" height="32" viewBox="0 0 32 32" fill="none" xmlns="http://www.w3.org/2000/svg">
<g clip-path="url(#clip0_709_24173)">
<path fill-rule="evenodd" clip-rule="evenodd" d="M28.0904 0C30.2482 0 32 1.75188 32 3.90963V28.0904C32 30.2481 30.2481 32 28.0904 32H21.4361V19.9428H25.5986L26.3906 14.779H21.4361V11.4279C21.4361 10.0153 22.1282 8.63819 24.3474 8.63819H26.6V4.24194C26.6 4.24194 24.5556 3.89306 22.6011 3.89306C18.5206 3.89306 15.8536 6.36612 15.8536 10.8433V14.779H11.3178V19.9428H15.8536V32H3.90963C1.75188 32 0 30.2481 0 28.0904V3.90963C0 1.75188 1.75181 0 3.90963 0L28.0904 0Z" fill="url(#paint0_radial_709_24173)"/>
</g>
<defs>
<radialGradient id="paint0_radial_709_24173" cx="0" cy="0" r="1" gradientUnits="userSpaceOnUse" gradientTransform="translate(16 16) scale(16 19.6479)">
<stop stop-color="#243876"/>
<stop offset="1" stop-color="#1C1E63"/>
</radialGradient>
<clipPath id="clip0_709_24173">
<rect width="32" height="32" fill="white"/>
</clipPath>
</defs>
</svg>
