<svg width="32" height="32" viewBox="0 0 32 32" fill="none" xmlns="http://www.w3.org/2000/svg">
<g clip-path="url(#clip0_709_24177)">
<path fill-rule="evenodd" clip-rule="evenodd" d="M28.0904 0C30.2482 0 32 1.75188 32 3.90963V28.0904C32 30.2481 30.2481 32 28.0904 32H3.90963C1.75188 32 0 30.2481 0 28.0904V3.90963C0 1.75188 1.75181 0 3.90963 0L28.0904 0ZM24.4233 7.98144C22.3082 5.86388 19.4954 4.69719 16.4984 4.69594C10.3235 4.69594 5.29781 9.72125 5.29537 15.8981C5.29456 17.8726 5.81044 19.7998 6.79081 21.4988L5.2015 27.3041L11.1403 25.7463C12.7766 26.6388 14.619 27.1092 16.4939 27.1098H16.4986C22.6729 27.1098 27.6989 22.0839 27.7015 15.9071C27.7026 12.9136 26.5384 10.0989 24.4233 7.98144ZM16.4985 25.2178H16.4947C14.8239 25.2172 13.1851 24.7682 11.7555 23.9199L11.4154 23.7181L7.89131 24.6426L8.83194 21.2065L8.61056 20.8542C7.6785 19.3717 7.18612 17.6582 7.18687 15.8988C7.18894 10.7649 11.3661 6.58806 16.5023 6.58806C18.9893 6.58894 21.3272 7.55875 23.0853 9.31881C24.8433 11.0788 25.8109 13.4183 25.8099 15.9063C25.8078 21.0406 21.6308 25.2177 16.4985 25.2178ZM21.6061 18.244C21.3261 18.1039 19.9499 17.4268 19.6933 17.3333C19.4367 17.2399 19.2501 17.1933 19.0635 17.4734C18.8769 17.7536 18.3404 18.3841 18.1771 18.571C18.0139 18.7577 17.8506 18.7812 17.5707 18.641C17.2908 18.5009 16.3888 18.2054 15.3196 17.2516C14.4875 16.5094 13.9256 15.5927 13.7624 15.3125C13.5991 15.0323 13.7449 14.8807 13.8851 14.7413C14.0111 14.6158 14.1651 14.4143 14.305 14.2508C14.445 14.0874 14.4916 13.9706 14.5849 13.7838C14.6782 13.5969 14.6316 13.4336 14.5616 13.2934C14.4916 13.1534 13.9317 11.7754 13.6985 11.2149C13.4713 10.6691 13.2406 10.7431 13.0687 10.7344C12.9056 10.7263 12.7188 10.7246 12.5323 10.7246C12.3456 10.7246 12.0423 10.7946 11.7858 11.0748C11.5292 11.3551 10.8061 12.0323 10.8061 13.4101C10.8061 14.7879 11.8091 16.1189 11.949 16.3058C12.089 16.4927 13.9229 19.32 16.7309 20.5325C17.3988 20.8209 17.9202 20.9932 18.3267 21.1221C18.9972 21.3353 19.6075 21.3052 20.0898 21.2331C20.6276 21.1528 21.746 20.556 21.9792 19.9021C22.2125 19.2481 22.2125 18.6877 22.1425 18.571C22.0726 18.4542 21.8859 18.3841 21.6061 18.244Z" fill="url(#paint0_radial_709_24177)"/>
</g>
<defs>
<radialGradient id="paint0_radial_709_24177" cx="0" cy="0" r="1" gradientUnits="userSpaceOnUse" gradientTransform="translate(16 16) scale(16 19.6479)">
<stop stop-color="#243876"/>
<stop offset="1" stop-color="#1C1E63"/>
</radialGradient>
<clipPath id="clip0_709_24177">
<rect width="32" height="32" fill="white"/>
</clipPath>
</defs>
</svg>
