<svg width="50" height="50" viewBox="0 0 50 50" fill="none" xmlns="http://www.w3.org/2000/svg">
<rect width="50" height="50" rx="25" fill="#120A4E"/>
<rect x="0.5" y="0.5" width="49" height="49" rx="24.5" stroke="white" stroke-opacity="0.2"/>
<path d="M30.5786 20.8222H37.5L33.0895 16.4089C31.6696 14.989 29.9009 13.9679 27.9612 13.4482C26.0215 12.9286 23.9791 12.9287 22.0395 13.4487C20.0999 13.9686 18.3313 14.99 16.9116 16.4101C15.4918 17.8303 14.471 19.5992 13.9517 21.539M12.5014 35.0976V28.1762M12.5014 28.1762H19.4228M12.5014 28.1762L16.9105 32.5894C18.3304 34.0094 20.0991 35.0305 22.0388 35.5501C23.9785 36.0698 26.0209 36.0696 27.9605 35.5497C29.9001 35.0298 31.6687 34.0084 33.0884 32.5882C34.5082 31.168 35.529 29.3991 36.0483 27.4594M37.5 13.9008V20.8194" stroke="white" stroke-width="1.5" stroke-linecap="round" stroke-linejoin="round"/>
</svg>
