<svg width="51" height="50" viewBox="0 0 51 50" fill="none" xmlns="http://www.w3.org/2000/svg">
<path d="M15 28.75V30.4283C15.0001 31.0852 14.8707 31.7356 14.6194 32.3424C14.368 32.9493 13.9995 33.5006 13.535 33.965L12.5 35H27.5L26.465 33.965C26.0005 33.5006 25.632 32.9493 25.3806 32.3424C25.1293 31.7356 24.9999 31.0852 25 30.4283V28.75M35 8.75V25C35 25.9946 34.6049 26.9484 33.9016 27.6516C33.1984 28.3549 32.2446 28.75 31.25 28.75H8.75C7.75544 28.75 6.80161 28.3549 6.09835 27.6516C5.39509 26.9484 5 25.9946 5 25V8.75M35 8.75C35 7.75544 34.6049 6.80161 33.9016 6.09835C33.1984 5.39509 32.2446 5 31.25 5H8.75C7.75544 5 6.80161 5.39509 6.09835 6.09835C5.39509 6.80161 5 7.75544 5 8.75M35 8.75V20C35 20.9946 34.6049 21.9484 33.9016 22.6516C33.1984 23.3549 32.2446 23.75 31.25 23.75H8.75C7.75544 23.75 6.80161 23.3549 6.09835 22.6516C5.39509 21.9484 5 20.9946 5 20V8.75" stroke="#0C072D" stroke-opacity="0.2" stroke-width="1.5" stroke-linecap="round" stroke-linejoin="round"/>
<path d="M26 38.75V40.4283C26.0001 41.0852 25.8707 41.7356 25.6194 42.3424C25.368 42.9493 24.9995 43.5006 24.535 43.965L23.5 45H38.5L37.465 43.965C37.0005 43.5006 36.632 42.9493 36.3806 42.3424C36.1293 41.7356 35.9999 41.0852 36 40.4283V38.75M46 18.75V35C46 35.9946 45.6049 36.9484 44.9016 37.6516C44.1984 38.3549 43.2446 38.75 42.25 38.75H19.75C18.7554 38.75 17.8016 38.3549 17.0983 37.6516C16.3951 36.9484 16 35.9946 16 35V18.75M46 18.75C46 17.7554 45.6049 16.8016 44.9016 16.0983C44.1984 15.3951 43.2446 15 42.25 15H19.75C18.7554 15 17.8016 15.3951 17.0983 16.0983C16.3951 16.8016 16 17.7554 16 18.75M46 18.75V30C46 30.9946 45.6049 31.9484 44.9016 32.6516C44.1984 33.3549 43.2446 33.75 42.25 33.75H19.75C18.7554 33.75 17.8016 33.3549 17.0983 32.6516C16.3951 31.9484 16 30.9946 16 30V18.75" fill="#F3F3F3"/>
<path d="M26 38.75V40.4283C26.0001 41.0852 25.8707 41.7356 25.6194 42.3424C25.368 42.9493 24.9995 43.5006 24.535 43.965L23.5 45H38.5L37.465 43.965C37.0005 43.5006 36.632 42.9493 36.3806 42.3424C36.1293 41.7356 35.9999 41.0852 36 40.4283V38.75M46 18.75V35C46 35.9946 45.6049 36.9484 44.9016 37.6516C44.1984 38.3549 43.2446 38.75 42.25 38.75H19.75C18.7554 38.75 17.8016 38.3549 17.0983 37.6516C16.3951 36.9484 16 35.9946 16 35V18.75M46 18.75C46 17.7554 45.6049 16.8016 44.9016 16.0983C44.1984 15.3951 43.2446 15 42.25 15H19.75C18.7554 15 17.8016 15.3951 17.0983 16.0983C16.3951 16.8016 16 17.7554 16 18.75M46 18.75V30C46 30.9946 45.6049 31.9484 44.9016 32.6516C44.1984 33.3549 43.2446 33.75 42.25 33.75H19.75C18.7554 33.75 17.8016 33.3549 17.0983 32.6516C16.3951 31.9484 16 30.9946 16 30V18.75" stroke="#0C072D" stroke-width="1.5" stroke-linecap="round" stroke-linejoin="round"/>
</svg>
