<svg width="54" height="55" viewBox="0 0 54 55" fill="none" xmlns="http://www.w3.org/2000/svg">
<g clip-path="url(#clip0_933_36313)">
<path d="M37.1847 34.1968L38.8238 30.1405C39.3827 28.7573 39.3693 27.2088 38.7865 25.8355C38.2036 24.4622 37.0991 23.3767 35.716 22.8178L33.3981 21.8811C32.937 21.6948 32.5688 21.333 32.3746 20.8752C32.1803 20.4174 32.1758 19.9013 32.3621 19.4402L33.2988 17.1223C33.8577 15.7391 33.8443 14.1905 33.2614 12.8173C32.6786 11.444 31.5741 10.3585 30.1909 9.79954L27.2935 8.62873M30.7704 10.0337L23.2372 6.9896C22.2776 6.60182 21.1841 7.06593 20.7963 8.02554L10.0248 34.6815C9.63707 35.6411 10.1012 36.7346 11.0608 37.1224L30.763 45.0839C31.7226 45.4717 32.8161 45.0076 33.2039 44.0479L39.058 29.561C40.5484 25.8725 40.5126 21.743 38.9584 18.081C37.4042 14.4189 34.4589 11.5242 30.7704 10.0337Z" stroke="black" stroke-opacity="0.2" stroke-width="1.5" stroke-linecap="round" stroke-linejoin="round"/>
</g>
<path d="M32.5 37.7871V33.4121C32.5 31.9203 31.9074 30.4895 30.8525 29.4346C29.7976 28.3797 28.3668 27.7871 26.875 27.7871H24.375C23.8777 27.7871 23.4008 27.5896 23.0492 27.2379C22.6975 26.8863 22.5 26.4094 22.5 25.9121V23.4121C22.5 21.9203 21.9074 20.4895 20.8525 19.4346C19.7976 18.3797 18.3668 17.7871 16.875 17.7871H13.75M17.5 17.7871H9.375C8.34 17.7871 7.5 18.6271 7.5 19.6621V48.4121C7.5 49.4471 8.34 50.2871 9.375 50.2871H30.625C31.66 50.2871 32.5 49.4471 32.5 48.4121V32.7871C32.5 28.8089 30.9196 24.9936 28.1066 22.1805C25.2936 19.3675 21.4782 17.7871 17.5 17.7871Z" fill="#F3F3F3"/>
<path d="M32.5 37.7871V33.4121C32.5 31.9203 31.9074 30.4895 30.8525 29.4346C29.7976 28.3797 28.3668 27.7871 26.875 27.7871H24.375C23.8777 27.7871 23.4008 27.5896 23.0492 27.2379C22.6975 26.8863 22.5 26.4094 22.5 25.9121V23.4121C22.5 21.9203 21.9074 20.4895 20.8525 19.4346C19.7976 18.3797 18.3668 17.7871 16.875 17.7871H13.75M17.5 17.7871H9.375C8.34 17.7871 7.5 18.6271 7.5 19.6621V48.4121C7.5 49.4471 8.34 50.2871 9.375 50.2871H30.625C31.66 50.2871 32.5 49.4471 32.5 48.4121V32.7871C32.5 28.8089 30.9196 24.9936 28.1066 22.1805C25.2936 19.3675 21.4782 17.7871 17.5 17.7871Z" stroke="black" stroke-width="1.5" stroke-linecap="round" stroke-linejoin="round"/>
<defs>
<clipPath id="clip0_933_36313">
<rect width="40" height="40" fill="white" transform="translate(15.95) rotate(22.0032)"/>
</clipPath>
</defs>
</svg>
