<svg width="70" height="44" viewBox="0 0 70 44" fill="none" xmlns="http://www.w3.org/2000/svg">
<path d="M26.25 10C26.25 11.6576 25.5916 13.2473 24.4195 14.4194C23.2474 15.5915 21.6576 16.25 20 16.25C18.3424 16.25 16.7527 15.5915 15.5806 14.4194C14.4085 13.2473 13.75 11.6576 13.75 10C13.75 8.3424 14.4085 6.75269 15.5806 5.58058C16.7527 4.40848 18.3424 3.75 20 3.75C21.6576 3.75 23.2474 4.40848 24.4195 5.58058C25.5916 6.75269 26.25 8.3424 26.25 10ZM7.50171 33.53C7.55527 30.2506 8.89561 27.1236 11.2337 24.8234C13.5717 22.5232 16.7202 21.2341 20 21.2341C23.2799 21.2341 26.4283 22.5232 28.7664 24.8234C31.1045 27.1236 32.4448 30.2506 32.4984 33.53C28.5774 35.3279 24.3136 36.2559 20 36.25C15.54 36.25 11.3067 35.2767 7.50171 33.53Z" stroke="white" stroke-opacity="0.2" stroke-width="1.5" stroke-linecap="round" stroke-linejoin="round"/>
<path d="M56.25 10C56.25 11.6576 55.5916 13.2473 54.4195 14.4194C53.2474 15.5915 51.6576 16.25 50 16.25C48.3424 16.25 46.7527 15.5915 45.5806 14.4194C44.4085 13.2473 43.75 11.6576 43.75 10C43.75 8.3424 44.4085 6.75269 45.5806 5.58058C46.7527 4.40848 48.3424 3.75 50 3.75C51.6576 3.75 53.2474 4.40848 54.4195 5.58058C55.5916 6.75269 56.25 8.3424 56.25 10ZM37.5017 33.53C37.5553 30.2506 38.8956 27.1236 41.2337 24.8234C43.5717 22.5232 46.7202 21.2341 50 21.2341C53.2799 21.2341 56.4283 22.5232 58.7664 24.8234C61.1045 27.1236 62.4448 30.2506 62.4984 33.53C58.5774 35.3279 54.3136 36.2559 50 36.25C45.54 36.25 41.3067 35.2767 37.5017 33.53Z" stroke="white" stroke-opacity="0.2" stroke-width="1.5" stroke-linecap="round" stroke-linejoin="round"/>
<path d="M41.25 14C41.25 15.6576 40.5916 17.2473 39.4195 18.4194C38.2474 19.5915 36.6576 20.25 35 20.25C33.3424 20.25 31.7527 19.5915 30.5806 18.4194C29.4085 17.2473 28.75 15.6576 28.75 14C28.75 12.3424 29.4085 10.7527 30.5806 9.58058C31.7527 8.40848 33.3424 7.75 35 7.75C36.6576 7.75 38.2474 8.40848 39.4195 9.58058C40.5916 10.7527 41.25 12.3424 41.25 14ZM22.5017 37.53C22.5553 34.2506 23.8956 31.1236 26.2337 28.8234C28.5717 26.5232 31.7202 25.2341 35 25.2341C38.2799 25.2341 41.4283 26.5232 43.7664 28.8234C46.1045 31.1236 47.4448 34.2506 47.4984 37.53C43.5774 39.3279 39.3136 40.2559 35 40.25C30.54 40.25 26.3067 39.2767 22.5017 37.53Z" fill="#120A4E" stroke="white" stroke-width="1.5" stroke-linecap="round" stroke-linejoin="round"/>
</svg>
