<svg width="68" height="62" viewBox="0 0 68 62" fill="none" xmlns="http://www.w3.org/2000/svg">
<g clip-path="url(#clip0_933_36317)">
<path d="M39.2906 9.68578L37.535 12.9994M54.7543 17.8786L52.9987 21.1923M21.4785 29.9554L30.2566 13.3871C30.7222 12.5082 31.5179 11.8504 32.4686 11.5582C33.4192 11.266 34.447 11.3634 35.3259 11.829L55.2078 22.3627C56.0867 22.8283 56.7445 23.624 57.0367 24.5747C57.3289 25.5253 57.2315 26.5531 56.7659 27.432L47.9878 44.0003M21.4785 29.9554C21.0129 30.8342 20.9155 31.862 21.2077 32.8127C21.4999 33.7634 22.1578 34.559 23.0366 35.0246L42.9185 45.5583C43.7974 46.0239 44.8252 46.1214 45.7759 45.8292C46.7265 45.537 47.5222 44.8791 47.9878 44.0003M21.4785 29.9554L27.3306 18.9098C27.7962 18.031 28.5919 17.3731 29.5425 17.0809C30.4932 16.7888 31.521 16.8862 32.3999 17.3518L52.2818 27.8855C53.1606 28.3511 53.8185 29.1467 54.1107 30.0974C54.4029 31.0481 54.3055 32.0759 53.8398 32.9547L47.9878 44.0003M39.4148 28.1414L39.4266 28.1476L39.4203 28.1594L39.4086 28.1532L39.4148 28.1414ZM37.6592 31.4551L37.671 31.4613L37.6647 31.4731L37.653 31.4668L37.6592 31.4551ZM35.9036 34.7687L35.9154 34.775L35.9091 34.7867L35.8973 34.7805L35.9036 34.7687ZM34.3455 29.6994L34.3573 29.7057L34.3511 29.7175L34.3393 29.7112L34.3455 29.6994ZM32.5899 33.0131L32.6017 33.0193L32.5955 33.0311L32.5837 33.0249L32.5899 33.0131ZM31.0319 27.9438L31.0437 27.9501L31.0374 27.9619L31.0256 27.9556L31.0319 27.9438ZM29.2763 31.2575L29.2881 31.2637L29.2818 31.2755L29.27 31.2693L29.2763 31.2575ZM42.7285 29.897L42.7402 29.9032L42.734 29.915L42.7222 29.9088L42.7285 29.897ZM40.9729 33.2107L40.9846 33.2169L40.9784 33.2287L40.9666 33.2224L40.9729 33.2107ZM39.2172 36.5243L39.229 36.5306L39.2228 36.5423L39.211 36.5361L39.2172 36.5243ZM46.0421 31.6526L46.0539 31.6589L46.0477 31.6706L46.0359 31.6644L46.0421 31.6526ZM44.2865 34.9663L44.2983 34.9725L44.2921 34.9843L44.2803 34.9781L44.2865 34.9663Z" stroke="white" stroke-opacity="0.2" stroke-width="1.5" stroke-linecap="round" stroke-linejoin="round"/>
</g>
<path d="M11.25 26.0352V29.7852ZM28.75 26.0352V29.7852ZM5 52.2852V33.5352C5 32.5406 5.39509 31.5868 6.09835 30.8835C6.80161 30.1802 7.75544 29.7852 8.75 29.7852H31.25C32.2446 29.7852 33.1984 30.1802 33.9016 30.8835C34.6049 31.5868 35 32.5406 35 33.5352V52.2852M5 52.2852C5 53.2797 5.39509 54.2335 6.09835 54.9368C6.80161 55.6401 7.75544 56.0352 8.75 56.0352H31.25C32.2446 56.0352 33.1984 55.6401 33.9016 54.9368C34.6049 54.2335 35 53.2797 35 52.2852M5 52.2852V39.7852C5 38.7906 5.39509 37.8368 6.09835 37.1335C6.80161 36.4302 7.75544 36.0352 8.75 36.0352H31.25C32.2446 36.0352 33.1984 36.4302 33.9016 37.1335C34.6049 37.8368 35 38.7906 35 39.7852V52.2852M20 42.2852H20.0133V42.2985H20V42.2852ZM20 46.0352H20.0133V46.0485H20V46.0352ZM20 49.7852H20.0133V49.7985H20V49.7852ZM16.25 46.0352H16.2633V46.0485H16.25V46.0352ZM16.25 49.7852H16.2633V49.7985H16.25V49.7852ZM12.5 46.0352H12.5133V46.0485H12.5V46.0352ZM12.5 49.7852H12.5133V49.7985H12.5V49.7852ZM23.75 42.2852H23.7633V42.2985H23.75V42.2852ZM23.75 46.0352H23.7633V46.0485H23.75V46.0352ZM23.75 49.7852H23.7633V49.7985H23.75V49.7852ZM27.5 42.2852H27.5133V42.2985H27.5V42.2852ZM27.5 46.0352H27.5133V46.0485H27.5V46.0352Z" fill="#141053"/>
<path d="M11.25 26.0352V29.7852M28.75 26.0352V29.7852M5 52.2852V33.5352C5 32.5406 5.39509 31.5868 6.09835 30.8835C6.80161 30.1802 7.75544 29.7852 8.75 29.7852H31.25C32.2446 29.7852 33.1984 30.1802 33.9016 30.8835C34.6049 31.5868 35 32.5406 35 33.5352V52.2852M5 52.2852C5 53.2797 5.39509 54.2335 6.09835 54.9368C6.80161 55.6401 7.75544 56.0352 8.75 56.0352H31.25C32.2446 56.0352 33.1984 55.6401 33.9016 54.9368C34.6049 54.2335 35 53.2797 35 52.2852M5 52.2852V39.7852C5 38.7906 5.39509 37.8368 6.09835 37.1335C6.80161 36.4302 7.75544 36.0352 8.75 36.0352H31.25C32.2446 36.0352 33.1984 36.4302 33.9016 37.1335C34.6049 37.8368 35 38.7906 35 39.7852V52.2852M20 42.2852H20.0133V42.2985H20V42.2852ZM20 46.0352H20.0133V46.0485H20V46.0352ZM20 49.7852H20.0133V49.7985H20V49.7852ZM16.25 46.0352H16.2633V46.0485H16.25V46.0352ZM16.25 49.7852H16.2633V49.7985H16.25V49.7852ZM12.5 46.0352H12.5133V46.0485H12.5V46.0352ZM12.5 49.7852H12.5133V49.7985H12.5V49.7852ZM23.75 42.2852H23.7633V42.2985H23.75V42.2852ZM23.75 46.0352H23.7633V46.0485H23.75V46.0352ZM23.75 49.7852H23.7633V49.7985H23.75V49.7852ZM27.5 42.2852H27.5133V42.2985H27.5V42.2852ZM27.5 46.0352H27.5133V46.0485H27.5V46.0352Z" stroke="white" stroke-width="1.5" stroke-linecap="round" stroke-linejoin="round"/>
<defs>
<clipPath id="clip0_933_36317">
<rect width="40" height="40" fill="white" transform="translate(31.6904) rotate(27.9151)"/>
</clipPath>
</defs>
</svg>
